<svg xmlns="http://www.w3.org/2000/svg" xmlns:xlink="http://www.w3.org/1999/xlink" version="1.1" x="0px" y="0px" width="20px" height="20px"
     viewBox="0 0 100 100" enable-background="new 0 0 100 100" xml:space="preserve"><path d="M23.031,24.649c0-1.313,1.154-2.471,2.468-2.471h49.363c1.316,0,2.471,1.158,2.471,2.471v49.364  c0,1.316-1.154,2.461-2.471,2.461H25.499c-1.313,0-2.468-1.145-2.468-2.461V24.649z M74.862,10.656H25.499  c-7.711,0-13.984,6.283-13.984,13.993v49.364C11.515,81.727,17.788,88,25.499,88h49.363c7.714,0,13.987-6.273,13.987-13.987V24.649  C88.85,16.939,82.576,10.656,74.862,10.656"/>
</svg>